<svg width="38" height="38" viewBox="0 0 38 38" fill="none" xmlns="http://www.w3.org/2000/svg">
<path d="M10.032 16.44L8.044 18.19L6.854 16.818L10.088 14.088H12.048V24H10.032V16.44ZM14.9712 21.774L18.8212 18.316C19.0172 18.1387 19.2132 17.938 19.4092 17.714C19.6052 17.49 19.7032 17.2287 19.7032 16.93C19.7032 16.594 19.5818 16.3327 19.3392 16.146C19.0965 15.95 18.8118 15.852 18.4852 15.852C18.0932 15.852 17.7852 15.9733 17.5612 16.216C17.3465 16.4587 17.2252 16.7573 17.1972 17.112L15.0972 16.958C15.1252 16.4447 15.2325 16.0013 15.4192 15.628C15.6058 15.2453 15.8532 14.928 16.1612 14.676C16.4692 14.424 16.8285 14.2373 17.2392 14.116C17.6592 13.9853 18.1118 13.92 18.5972 13.92C19.0452 13.92 19.4652 13.9853 19.8572 14.116C20.2492 14.2373 20.5898 14.424 20.8792 14.676C21.1685 14.9187 21.3925 15.2267 21.5512 15.6C21.7192 15.9733 21.8032 16.4073 21.8032 16.902C21.8032 17.2193 21.7705 17.5087 21.7052 17.77C21.6398 18.022 21.5465 18.2553 21.4252 18.47C21.3132 18.6753 21.1778 18.8667 21.0192 19.044C20.8605 19.2213 20.6878 19.394 20.5012 19.562L17.4912 22.152H21.8872V24H14.9712V21.774ZM23.3963 18.876H26.3503V15.922H28.1143V18.876H31.0683V20.64H28.1143V23.594H26.3503V20.64H23.3963V18.876Z" fill="#2D2E83"/>
<circle cx="19" cy="19" r="18" stroke="#2D2E83" stroke-width="2"/>
</svg>
