<svg width="30" height="30" viewBox="0 0 30 30" fill="none" xmlns="http://www.w3.org/2000/svg">
<rect width="30" height="30" rx="4" fill="#E30613"/>
<path d="M18.4735 6.00145C18.3838 6.0151 18.3055 6.09179 18.289 6.11195C18.2811 6.12185 18.2632 6.13176 18.2582 6.14347L9.56147 15.9162C9.52172 15.9573 9.5 16.012 9.5 16.0741C9.5 16.1987 9.59392 16.2953 9.71509 16.2953H14.1402L12.2965 23.6841V23.7315C12.2935 23.7455 12.2812 23.7635 12.2812 23.7788C12.2812 23.9034 12.3752 24 12.4963 24C12.5641 24 12.6251 23.9706 12.6654 23.9211L21.4385 13.6426C21.4784 13.6017 21.5 13.547 21.5 13.4847C21.5 13.3603 21.4061 13.2637 21.2851 13.2637H16.537L18.6576 6.33296C18.6719 6.3029 18.6728 6.2739 18.6728 6.23827C18.6728 6.11371 18.6663 6.05916 18.5654 6.01727C18.5351 6.0045 18.5031 5.99659 18.4733 6.00145L18.4735 6.00145Z" fill="white"/>
</svg>
